# File created by Blade
# Date/Time:  Thu Jan 22 19:01:23 2015
#---------------------------------------------------------
:version 1.10
:name HOM
:units
  mass 1.0
  length 1.000000
  angle deg
:documentation
     Acclaim Skeleton File
:root
   axis xyz
   order TX TY TZ RX RY RZ
   position 0.000000 0.000000 0.000000
   orientation 0 0 0
:bonedata
   begin
      id 1
      name RightUpLeg_dum
      direction -1.000000 0.000000 0.000000
      length 4.478084
      axis 0.0 0.0 0.0 xyz
   end
   begin
      id 2
      name LeftUpLeg_dum
      direction 1.000000 0.000000 0.000000
      length 4.478084
      axis 0.0 0.0 0.0 xyz
   end
   begin
      id 3
      name Spine_dum
      direction 0.000000 1.000000 0.000000
      length 6.068208
      axis 0.0 0.0 0.0 xyz
   end
   begin
      id 4
      name RightUpLeg
      direction 0.000000 -1.000000 0.000000
      length 16.405774
      axis 0.0 0.0 0.0 xyz
      dof rx ry rz
   end
   begin
      id 5
      name RightLeg
      direction 0.000000 -1.000000 0.000000
      length 14.644143
      axis 0.0 0.0 0.0 xyz
      dof rx ry rz
   end
   begin
      id 6
      name RightFoot
      direction 0.000000 -0.258819 0.965926
      length 5.806150
      axis 15.0 0.0 0.0 xyz
      dof rx ry rz
   end
   begin
      id 7
      name RightToeBase
      direction 0.000000 0.000000 1.000000
      length 2.952750
      axis 0.0 0.0 0.0 xyz
      dof rx ry rz
   end
   begin
      id 8
      name LeftUpLeg
      direction 0.000000 -1.000000 0.000000
      length 16.405774
      axis 0.0 0.0 0.0 xyz
      dof rx ry rz
   end
   begin
      id 9
      name LeftLeg
      direction 0.000000 -1.000000 0.000000
      length 14.644143
      axis 0.0 0.0 0.0 xyz
      dof rx ry rz
   end
   begin
      id 10
      name LeftFoot
      direction 0.000000 -0.258819 0.965926
      length 5.806150
      axis 15.0 0.0 0.0 xyz
      dof rx ry rz
   end
   begin
      id 11
      name LeftToeBase
      direction 0.000000 0.000000 1.000000
      length 2.952750
      axis 0.0 0.0 0.0 xyz
      dof rx ry rz
   end
   begin
      id 12
      name Spine
      direction 0.000000 1.000000 0.000000
      length 0.000000
      axis 0.0 0.0 0.0 xyz
      dof rx ry rz
   end
   begin
      id 13
      name Spine_dum1
      direction 0.000000 1.000000 0.000000
      length 10.013923
      axis 0.0 0.0 0.0 xyz
   end
   begin
      id 14
      name Spine_dum2
      direction 0.000000 1.000000 0.000000
      length 10.013923
      axis 0.0 0.0 0.0 xyz
   end
   begin
      id 15
      name Spine_dum3
      direction 0.000000 1.000000 0.000000
      length 15.777476
      axis 0.0 0.0 0.0 xyz
   end
   begin
      id 16
      name RightShoulder
      direction -1.000000 0.000000 0.000000
      length 7.190220
      axis 0.0 0.0 90.0 xyz
      dof rx ry rz
   end
   begin
      id 17
      name RightArm
      direction -1.000000 0.000000 0.000000
      length 10.177469
      axis 0.0 0.0 90.0 xyz
      dof rx ry rz
   end
   begin
      id 18
      name RightForeArm
      direction -1.000000 0.000000 0.000000
      length 8.392114
      axis 0.0 0.0 90.0 xyz
      dof ry rz rx
   end
   begin
      id 19
      name RightHand
      direction -1.000000 0.000000 0.000000
      length 0.000000
      axis 0.0 0.0 90.0 xyz
      dof rx ry rz
   end
   begin
      id 20
      name RightHand_dum1
      direction -1.000000 0.000000 0.000000
      length 3.937000
      axis 0.0 0.0 90.0 xyz
   end
   begin
      id 21
      name RightHand_dum2
      direction 0.000000 0.000000 0.000000
      length 0.000000
      axis 0.0 0.0 90.0 xyz
   end
   begin
      id 22
      name RightHandThumb1
      direction 0.000000 0.000000 1.000000
      length 3.937000
      axis 0.0 0.0 90.0 xyz
      dof rx rz ry
   end
   begin
      id 23
      name LeftShoulder
      direction 1.000000 0.000000 0.000000
      length 7.190220
      axis 0.0 0.0 -90.0 xyz
      dof rx ry rz
   end
   begin
      id 24
      name LeftArm
      direction 1.000000 0.000000 0.000000
      length 10.177469
      axis 0.0 0.0 -90.0 xyz
      dof rx ry rz
   end
   begin
      id 25
      name LeftForeArm
      direction 1.000000 0.000000 0.000000
      length 8.392114
      axis 0.0 0.0 -90.0 xyz
      dof ry rz rx
   end
   begin
      id 26
      name LeftHand
      direction 1.000000 0.000000 0.000000
      length 0.000000
      axis 0.0 0.0 -90.0 xyz
      dof rx ry rz
   end
   begin
      id 27
      name LeftHand_dum1
      direction 1.000000 0.000000 0.000000
      length 3.937000
      axis 0.0 0.0 -90.0 xyz
   end
   begin
      id 28
      name LeftHand_dum2
      direction 0.000000 0.000000 0.000000
      length 0.000000
      axis 0.0 0.0 -90.0 xyz
   end
   begin
      id 29
      name LeftHandThumb1
      direction 0.000000 0.000000 1.000000
      length 3.937000
      axis 0.0 0.0 -90.0 xyz
      dof rx rz ry
   end
   begin
      id 30
      name Head
      direction 0.000000 1.000000 0.000000
      length 4.527550
      axis 0.0 0.0 0.0 xyz
      dof rx ry rz
   end
:hierarchy
   begin
      root RightUpLeg_dum LeftUpLeg_dum Spine_dum
      RightUpLeg_dum RightUpLeg
      LeftUpLeg_dum LeftUpLeg
      Spine_dum Spine
      RightUpLeg RightLeg
      RightLeg RightFoot
      RightFoot RightToeBase
      LeftUpLeg LeftLeg
      LeftLeg LeftFoot
      LeftFoot LeftToeBase
      Spine Spine_dum1 Spine_dum2 Spine_dum3
      Spine_dum1 RightShoulder
      Spine_dum2 LeftShoulder
      Spine_dum3 Head
      RightShoulder RightArm
      RightArm RightForeArm
      RightForeArm RightHand
      RightHand RightHand_dum1 RightHand_dum2
      RightHand_dum2 RightHandThumb1
      LeftShoulder LeftArm
      LeftArm LeftForeArm
      LeftForeArm LeftHand
      LeftHand LeftHand_dum1 LeftHand_dum2
      LeftHand_dum2 LeftHandThumb1
   end

# File created by Blade
# Date/Time:  Thu Jan 22 19:01:15 2015
# Frame Rate: 120.000 fps
#------------------------------------------------------
:FULLY-SPECIFIED
:DEGREES
395
root -2.856374 33.155211 -0.616208 8.358507 -3.072968 2.544880
RightUpLeg -5.488394 -6.292232 -1.801346
RightLeg 6.047852 -0.000000 -0.000000
RightFoot -14.043363 -2.775498 3.647349
RightToeBase 5.307306 -0.000000 -0.000000
LeftUpLeg -4.727529 4.598930 0.775152
LeftLeg 6.708921 -0.000000 -0.000000
LeftFoot -13.269046 2.440689 -10.440574
LeftToeBase 6.958003 -0.000000 -0.000000
Spine -3.225506 -0.828575 -1.549975
RightShoulder -21.814088 -36.063274 -3.513008
RightArm 27.098169 -68.785577 62.285078
RightForeArm 36.302291 -0.000000 40.374998
RightHand 3.639791 -0.000000 35.515207
RightHandThumb1 -24.326973 -0.000000 -32.862282
LeftShoulder -24.791198 21.150011 13.585628
LeftArm -30.413675 57.257462 -115.817931
LeftForeArm -4.158514 -0.000000 53.229225
LeftHand -3.608126 0.000000 -28.693138
LeftHandThumb1 -26.253704 0.000000 33.147579
Head -12.402976 3.094282 -2.490772
396
root -2.850184 33.158069 -0.618372 8.403003 -3.127863 2.544294
RightUpLeg -5.520060 -6.213934 -1.816430
RightLeg 5.991976 -0.000000 -0.000000
RightFoot -13.988295 -2.789490 3.671118
RightToeBase 5.321237 -0.000000 -0.000000
LeftUpLeg -4.720417 4.642776 0.754009
LeftLeg 6.608132 -0.000000 -0.000000
LeftFoot -13.220882 2.456146 -10.446681
LeftToeBase 7.004850 -0.000000 -0.000000
Spine -3.220214 -0.875706 -1.519122
RightShoulder -22.225186 -35.993852 -3.485834
RightArm 26.219665 -68.250266 63.621721
RightForeArm 35.288511 -0.000000 39.323782
RightHand 3.309060 -0.000000 36.060016
RightHandThumb1 -24.326973 -0.000000 -32.862282
LeftShoulder -25.071235 21.085036 13.719900
LeftArm -30.360381 56.876398 -116.308273
LeftForeArm -3.564909 0.000000 52.185287
LeftHand -3.830257 -0.000000 -28.705606
LeftHandThumb1 -26.253704 0.000000 33.147579
Head -12.441759 3.183233 -2.587591
397
root -2.848285 33.161366 -0.618015 8.482457 -3.145786 2.535821
RightUpLeg -5.561921 -6.211661 -1.806128
RightLeg 5.901112 -0.000000 -0.000000
RightFoot -13.906264 -2.744646 3.714731
RightToeBase 5.283073 -0.000000 -0.000000
LeftUpLeg -4.748668 4.662099 0.751521
LeftLeg 6.506522 -0.000000 -0.000000
LeftFoot -13.160690 2.457936 -10.459700
LeftToeBase 6.984504 -0.000000 -0.000000
Spine -3.274383 -0.957023 -1.488452
RightShoulder -22.632630 -35.988043 -3.456432
RightArm 25.347260 -67.648467 64.988273
RightForeArm 34.045133 -0.000000 38.252602
RightHand 3.058146 -0.000000 36.559726
RightHandThumb1 -24.326973 -0.000000 -32.862282
LeftShoulder -25.393798 21.078485 13.854137
LeftArm -30.140103 56.404691 -116.640893
LeftForeArm -3.183164 -0.000000 50.990734
LeftHand -4.089466 0.000000 -29.160912
LeftHandThumb1 -26.253704 0.000000 33.147579
Head -12.467139 3.259590 -2.656124
398
root -2.846014 33.164852 -0.613948 8.512406 -3.171386 2.528388
RightUpLeg -5.558139 -6.225898 -1.803981
RightLeg 5.835655 -0.000000 -0.000000
RightFoot -13.853833 -2.728780 3.675865
RightToeBase 5.304399 -0.000000 -0.000000
LeftUpLeg -4.708163 4.713303 0.750207
LeftLeg 6.381187 -0.000000 -0.000000
LeftFoot -13.099891 2.455758 -10.390540
LeftToeBase 7.053726 -0.000000 -0.000000
Spine -3.276612 -1.052080 -1.458590
RightShoulder -23.015310 -36.009110 -3.439059
RightArm 24.427337 -66.950130 66.426990
RightForeArm 32.722166 -0.000000 37.124174
RightHand 2.980264 -0.000000 37.191444
RightHandThumb1 -24.326973 -0.000000 -32.862282
LeftShoulder -25.761848 21.114292 13.952289
LeftArm -29.790733 55.812378 -116.827159
LeftForeArm -2.928149 -0.000000 49.765148
LeftHand -4.309122 -0.000000 -29.743471
LeftHandThumb1 -26.253704 0.000000 33.147579
Head -12.487669 3.343615 -2.712252
399
root -2.844516 33.168367 -0.611187 8.554031 -3.204026 2.518711
RightUpLeg -5.554815 -6.181151 -1.802240
RightLeg 5.739553 -0.000000 -0.000000
RightFoot -13.777970 -2.720824 3.697747
RightToeBase 5.274767 -0.000000 -0.000000
LeftUpLeg -4.685669 4.786539 0.751035
LeftLeg 6.266409 -0.000000 -0.000000
LeftFoot -13.017222 2.392991 -10.448730
LeftToeBase 7.003441 -0.000000 -0.000000
Spine -3.266950 -1.117021 -1.426854
RightShoulder -23.409541 -35.961860 -3.408914
RightArm 23.213338 -66.146397 68.096938
RightForeArm 31.396069 -0.000000 36.085321
RightHand 2.791734 -0.000000 37.839070
RightHandThumb1 -24.326973 -0.000000 -32.862282
LeftShoulder -26.139541 21.059078 14.038013
LeftArm -29.513854 55.118820 -116.983445
LeftForeArm -2.725674 0.000000 48.548685
LeftHand -4.367525 -0.000000 -30.436318
LeftHandThumb1 -26.253704 0.000000 33.147579
Head -12.578259 3.379452 -2.793465
400
root -2.842804 33.172195 -0.608298 8.576297 -3.234770 2.508316
RightUpLeg -5.536582 -6.153504 -1.799188
RightLeg 5.652070 -0.000000 -0.000000
RightFoot -13.707903 -2.709396 3.720678
RightToeBase 5.319621 -0.000000 -0.000000
LeftUpLeg -4.641119 4.847276 0.752624
LeftLeg 6.147773 -0.000000 -0.000000
LeftFoot -12.948458 2.366060 -10.452794
LeftToeBase 6.980523 -0.000000 -0.000000
Spine -3.241878 -1.181928 -1.398326
RightShoulder -23.752112 -35.911756 -3.407679
RightArm 21.914185 -65.271749 69.836374
RightForeArm 30.164217 -0.000000 35.030095
RightHand 2.863302 -0.000000 38.279197
RightHandThumb1 -24.326973 -0.000000 -32.862282
LeftShoulder -26.547501 21.076649 14.068382
LeftArm -29.091356 54.410256 -116.975853
LeftForeArm -2.592258 -0.000000 47.338942
LeftHand -4.445625 -0.000000 -31.084927
LeftHandThumb1 -26.253704 0.000000 33.147579
Head -12.634115 3.442161 -2.863092
401
root -2.841924 33.176106 -0.604310 8.608703 -3.272684 2.499645
RightUpLeg -5.531471 -6.138805 -1.795028
RightLeg 5.571273 -0.000000 -0.000000
RightFoot -13.630597 -2.682197 3.731804
RightToeBase 5.293130 -0.000000 -0.000000
LeftUpLeg -4.601168 4.893100 0.754483
LeftLeg 6.024345 -0.000000 -0.000000
LeftFoot -12.876085 2.354176 -10.455166
LeftToeBase 7.012347 -0.000000 -0.000000
Spine -3.232562 -1.256561 -1.375118
RightShoulder -24.038962 -35.886134 -3.419309
RightArm 20.744751 -64.353144 71.455165
RightForeArm 29.033713 0.000000 33.972849
RightHand 2.827819 -0.000000 38.951504
RightHandThumb1 -24.326973 -0.000000 -32.862282
LeftShoulder -27.027870 21.116710 14.074289
LeftArm -28.685648 53.772516 -116.951345
LeftForeArm -2.395310 0.000000 46.204773
LeftHand -4.479243 0.000000 -31.727589
LeftHandThumb1 -26.253704 0.000000 33.147579
Head -12.686977 3.525276 -2.936722
